# xmcd
#
# Track frame offsets: 
#        150
#        20739
#        37881
#        55102
#        69888
#        90190
#        106333
#        128742
#        151035
#        168212
#
# Disc length: 2524 seconds
#
# Revision: 0
# Processed by: cddbd v1.5.2PL0 Copyright (c) Steve Scherf et al.
# Submitted via: ExactAudioCopyFreeDBPlugin 1.0
#
DISCID=6709da0a
DTITLE=k.d. lang - Ingénue (25th Anniversary Edition)
DYEAR=2017
DGENRE=Pop
TTITLE0=Save Me
TTITLE1=The Mind Of Love
TTITLE2=Miss Chatelaine
TTITLE3=Wash Me Clean
TTITLE4=So It Shall Be
TTITLE5=Still Thrives This Love
TTITLE6=Season Of Hollow Soul
TTITLE7=Outside Myself
TTITLE8=Tears Of Love's Recall
TTITLE9=Constant Craving
EXTD=
EXTT0=
EXTT1=
EXTT2=
EXTT3=
EXTT4=
EXTT5=
EXTT6=
EXTT7=
EXTT8=
EXTT9=
PLAYORDER=
